<svg xmlns="http://www.w3.org/2000/svg" viewBox="415 280 410 200" width="410" height="200"><defs><linearGradient x1="706.41113" y1="366.52856" x2="756.49951" y2="412.25343" gradientUnits="userSpaceOnUse" id="color-1"><stop offset="0" stop-color="#e6ff00"/><stop offset="0.5" stop-color="#d4ff00"/><stop offset="1" stop-color="#ffe600"/></linearGradient><linearGradient x1="618.30351" y1="366.66811" x2="700.86866" y2="412.33566" gradientUnits="userSpaceOnUse" id="color-2"><stop offset="0" stop-color="#e6ff00"/><stop offset="0.5" stop-color="#d4ff00"/><stop offset="1" stop-color="#ffe600"/></linearGradient><linearGradient x1="759.52588" y1="366.25122" x2="815.71045" y2="412.21825" gradientUnits="userSpaceOnUse" id="color-3"><stop offset="0" stop-color="#e6ff00"/><stop offset="0.5" stop-color="#d4ff00"/><stop offset="1" stop-color="#ffe600"/></linearGradient></defs><g data-paper-data="{&quot;layerid&quot;:&quot;stage&quot;,&quot;name&quot;:&quot;stage&quot;,&quot;stage&quot;:false,&quot;refId&quot;:-1,&quot;vgx&quot;:{&quot;signed&quot;:true,&quot;selected&quot;:false,&quot;unsigned&quot;:false,&quot;contained&quot;:false,&quot;visible&quot;:true,&quot;id&quot;:&quot;j19up38m2_1773159595142119&quot;,&quot;changeset&quot;:&quot;pdmcwuyno_1773159595142120&quot;,&quot;staticid&quot;:&quot;jkxvwqklz_1773159595142121&quot;,&quot;name&quot;:&quot;stage&quot;,&quot;opacity&quot;:1,&quot;altname&quot;:&quot;&quot;,&quot;was&quot;:&quot;&quot;,&quot;owner&quot;:null,&quot;layer&quot;:true,&quot;class&quot;:&quot;item&quot;,&quot;type&quot;:&quot;default&quot;,&quot;ui&quot;:false,&quot;actor&quot;:false,&quot;props&quot;:{},&quot;corners&quot;:null,&quot;locked&quot;:false,&quot;disabled&quot;:false,&quot;strokeScaling&quot;:true,&quot;container&quot;:false,&quot;layerid&quot;:&quot;stage&quot;}}" id="stage" fill="none" fill-rule="none" stroke="none" stroke-width="1" stroke-linecap="butt" stroke-linejoin="miter" stroke-miterlimit="10" stroke-dasharray="" stroke-dashoffset="0" font-family="none" font-weight="none" font-size="none" text-anchor="none" style="mix-blend-mode: normal"><g data-paper-data="{&quot;layerid&quot;:&quot;layer1&quot;,&quot;name&quot;:&quot;layer1&quot;,&quot;stage&quot;:true,&quot;refId&quot;:-1,&quot;vgx&quot;:{&quot;signed&quot;:true,&quot;selected&quot;:false,&quot;unsigned&quot;:false,&quot;contained&quot;:false,&quot;visible&quot;:true,&quot;id&quot;:&quot;dhvgynjc6_1773159595143155&quot;,&quot;changeset&quot;:&quot;mdoyfn08c_1773159595143156&quot;,&quot;staticid&quot;:&quot;ozps3o5t8_1773159595143157&quot;,&quot;name&quot;:&quot;layer1&quot;,&quot;opacity&quot;:1,&quot;altname&quot;:&quot;&quot;,&quot;was&quot;:&quot;&quot;,&quot;owner&quot;:null,&quot;layer&quot;:true,&quot;class&quot;:&quot;item&quot;,&quot;type&quot;:&quot;default&quot;,&quot;ui&quot;:false,&quot;actor&quot;:false,&quot;props&quot;:{},&quot;corners&quot;:null,&quot;locked&quot;:false,&quot;disabled&quot;:false,&quot;strokeScaling&quot;:true,&quot;container&quot;:false,&quot;layerid&quot;:&quot;layer1&quot;,&quot;collapsed-layer&quot;:true}}" id="layer1"><g data-paper-data="{&quot;vgx&quot;:{&quot;signed&quot;:true,&quot;selected&quot;:false,&quot;unsigned&quot;:false,&quot;contained&quot;:false,&quot;visible&quot;:true,&quot;id&quot;:&quot;jyx5p7svj_1773159595423357&quot;,&quot;changeset&quot;:&quot;nsqu0g3fj_1773159595423358&quot;,&quot;staticid&quot;:&quot;341nkj617_1773159595423359&quot;,&quot;name&quot;:&quot;Group&quot;,&quot;opacity&quot;:1,&quot;altname&quot;:&quot;&quot;,&quot;was&quot;:&quot;&quot;,&quot;owner&quot;:null,&quot;layer&quot;:false,&quot;class&quot;:&quot;item&quot;,&quot;type&quot;:&quot;default&quot;,&quot;ui&quot;:false,&quot;actor&quot;:true,&quot;props&quot;:{},&quot;corners&quot;:null,&quot;locked&quot;:false,&quot;disabled&quot;:false,&quot;strokeScaling&quot;:true,&quot;container&quot;:false}}" id="Group"><g data-paper-data="{&quot;vgx&quot;:{&quot;signed&quot;:true,&quot;selected&quot;:false,&quot;unsigned&quot;:false,&quot;contained&quot;:false,&quot;visible&quot;:true,&quot;id&quot;:&quot;g66apu7o2_1773159595424360&quot;,&quot;changeset&quot;:&quot;5wq8f7tvw_1773159595424361&quot;,&quot;staticid&quot;:&quot;5jpl8gszl_1773159595424362&quot;,&quot;name&quot;:&quot;Group&quot;,&quot;opacity&quot;:1,&quot;altname&quot;:&quot;&quot;,&quot;was&quot;:&quot;&quot;,&quot;owner&quot;:null,&quot;layer&quot;:false,&quot;class&quot;:&quot;item&quot;,&quot;type&quot;:&quot;default&quot;,&quot;ui&quot;:false,&quot;actor&quot;:true,&quot;props&quot;:{},&quot;corners&quot;:null,&quot;locked&quot;:false,&quot;disabled&quot;:false,&quot;strokeScaling&quot;:true,&quot;container&quot;:false}}" id="Group"><g data-paper-data="{&quot;vgx&quot;:{&quot;signed&quot;:true,&quot;selected&quot;:false,&quot;unsigned&quot;:false,&quot;contained&quot;:false,&quot;visible&quot;:true,&quot;id&quot;:&quot;actkcr2bp_1773159595424363&quot;,&quot;changeset&quot;:&quot;u0as1ndfb_1773159595424364&quot;,&quot;staticid&quot;:&quot;extuc1j66_1773159595424365&quot;,&quot;name&quot;:&quot;Group&quot;,&quot;opacity&quot;:1,&quot;altname&quot;:&quot;&quot;,&quot;was&quot;:&quot;&quot;,&quot;owner&quot;:null,&quot;layer&quot;:false,&quot;class&quot;:&quot;item&quot;,&quot;type&quot;:&quot;default&quot;,&quot;ui&quot;:false,&quot;actor&quot;:true,&quot;props&quot;:{},&quot;corners&quot;:null,&quot;locked&quot;:false,&quot;disabled&quot;:false,&quot;strokeScaling&quot;:true,&quot;container&quot;:false}}" id="Group"><path d="M590.82866,456.17477c-9.92886,7.68712 -18.6698,13.05483 -30.56702,17.57974c-27.15791,10.1514 -57.21716,9.22781 -83.70049,-2.57189c-24.42373,-11.00183 -43.50761,-31.21339 -53.09099,-56.22742c-9.23339,-24.23602 -8.38432,-51.15886 2.35771,-74.76454c11.34592,-25.07393 32.33235,-44.50641 58.20379,-53.89304c26.88696,-9.88463 56.60771,-8.62706 82.56379,3.49373l-1.35891,0.61572c-3.65428,-1.75558 -9.37791,-3.47736 -13.28537,-4.50193c-20.17637,-5.39627 -41.51069,-4.59075 -61.22249,2.31245c-41.8802,14.69199 -70.73761,54.21379 -67.50507,98.89572c0.60911,8.41637 1.9116,15.70333 4.76627,23.69412c8.98821,25.19199 27.6399,45.76641 51.83239,57.17537c25.14323,11.88641 55.79,12.66546 81.82026,3.23183c10.74552,-3.89422 20.43477,-9.82298 29.50901,-16.66836l0.20651,0.5997z" data-paper-data="{&quot;vgx&quot;:{&quot;signed&quot;:true,&quot;selected&quot;:false,&quot;unsigned&quot;:false,&quot;contained&quot;:false,&quot;visible&quot;:true,&quot;id&quot;:&quot;nhnlhsb4f_1773159595424369&quot;,&quot;changeset&quot;:&quot;aj0i9a48l_1773159595424370&quot;,&quot;staticid&quot;:&quot;vuuamje24_1773159595424371&quot;,&quot;name&quot;:&quot;Path&quot;,&quot;opacity&quot;:1,&quot;altname&quot;:&quot;&quot;,&quot;was&quot;:&quot;&quot;,&quot;owner&quot;:null,&quot;layer&quot;:false,&quot;class&quot;:&quot;item&quot;,&quot;type&quot;:&quot;default&quot;,&quot;ui&quot;:false,&quot;actor&quot;:true,&quot;props&quot;:{},&quot;corners&quot;:null,&quot;locked&quot;:false,&quot;disabled&quot;:false,&quot;strokeScaling&quot;:true,&quot;container&quot;:false}}" id="Path" fill="#fefdfd" fill-rule="nonzero"/><path d="M706.63582,366.6089l21.71742,-0.03343c8.93631,-0.01533 21.84974,-1.26 25.36369,10.13817c1.44179,4.67327 0.30647,11.67016 -3.81692,14.74353c-2.82787,2.10661 -4.81641,2.73974 -8.19105,3.64801c3.87961,4.59702 10.73333,13.1001 14.79055,17.0988l-4.45422,0.0115l-8.25026,0.00105c-3.46517,-5.02258 -9.20797,-11.60327 -13.22339,-16.39288c-4.45075,-0.07558 -9.06517,0.01673 -13.52984,0.04631c0.13931,5.24965 0,11.08891 -0.02089,16.38349l-10.46866,-0.01915c-0.24379,-14.69686 -0.14278,-30.92363 0.08359,-45.62537zM717.18807,375.15308c6.57513,0.50568 29.74477,-3.91513 26.51641,7.99463c-0.2612,0.96189 -0.91941,1.97428 -1.49055,2.79686c-3.57661,2.97343 -19.78109,1.85761 -25.16517,1.81826c-0.03134,-3.75039 -0.19503,-8.98787 0.13931,-12.60974z" id="Path" fill="url(#color-1)" fill-rule="evenodd"/><path d="M510.76677,355.91771c2.24732,-0.07627 4.73631,0.02856 7.00209,0.07592l-0.03274,57.2788l-6.69389,-0.06059l-0.05886,-4.2888c-8.70856,5.84621 -17.11134,7.11179 -26.53035,1.99901c-9.09582,-6.3087 -11.50542,-17.93846 -5.82568,-27.55527c4.83974,-8.19418 17.76641,-11.39572 26.1612,-7.37055c2.18846,1.04931 3.90607,2.07353 5.99458,3.41085c-0.17203,-7.60006 -0.09751,-15.89661 -0.01637,-23.48935zM494.39059,380.24951c7.94657,-0.22323 12.09503,0.74422 16.32673,7.86891c0.2786,10.05562 1.4202,17.69607 -10.9987,19.84379c-3.75667,0.32353 -6.85931,0.40363 -10.23915,-1.63578c-6.66393,-3.99035 -8.27951,-13.8203 -4.19582,-20.17254c2.1714,-3.37742 5.27298,-5.07517 9.10696,-5.90438z" id="Path" fill="#fefdfd" fill-rule="evenodd"/><path d="M690.49055,366.66811c3.45124,0.03866 6.93383,0.10866 10.37811,0.00105c-3.64278,10.03925 -8.2398,20.26448 -12.03931,30.26647c-1.68905,4.44692 -4.61442,10.77442 -5.55124,15.29483l-10.00199,0.07523c-0.55373,-2.54751 -3.2214,-8.76463 -4.30448,-11.46503l-7.89154,-19.86327c-0.36568,-0.96258 -0.41442,-1.66712 -1.14229,-2.07318c-2.22537,5.16189 -4.40895,11.51761 -6.52288,16.86235c-1.70647,4.30866 -5.05673,12.36075 -6.06318,16.56911l-9.74428,-0.0484c-0.88807,-2.90761 -4.09552,-9.97866 -5.38651,-13.04055l-13.91746,-32.29821c3.58775,-0.03308 7.17588,-0.02682 10.76363,0.01846c2.8188,10.46657 9.81846,23.3598 13.13389,34.02383c1.01343,-4.04432 3.77164,-9.8916 5.33183,-13.94602c2.57016,-6.67438 5.3597,-13.57931 7.60249,-20.36095c2.33333,0.27164 7.55026,0.19955 9.9985,0.22637c1.87363,7.14314 6.40099,16.37199 9.06517,23.42006c1.35821,3.58533 3.00546,6.26239 3.95274,10.20189c1.15621,-3.98791 3.43732,-9.54578 4.94527,-13.55039c2.53183,-6.74647 4.99751,-13.51801 7.39353,-20.31359z" data-paper-data="{&quot;vgx&quot;:{&quot;signed&quot;:true,&quot;selected&quot;:false,&quot;unsigned&quot;:false,&quot;contained&quot;:false,&quot;visible&quot;:true,&quot;id&quot;:&quot;6wt13ugk0_1773159595424384&quot;,&quot;changeset&quot;:&quot;84w9h9lpi_1773159595424385&quot;,&quot;staticid&quot;:&quot;xyo4pxpqv_1773159595424386&quot;,&quot;name&quot;:&quot;Path&quot;,&quot;opacity&quot;:1,&quot;altname&quot;:&quot;&quot;,&quot;was&quot;:&quot;&quot;,&quot;owner&quot;:null,&quot;layer&quot;:false,&quot;class&quot;:&quot;item&quot;,&quot;type&quot;:&quot;default&quot;,&quot;ui&quot;:false,&quot;actor&quot;:true,&quot;props&quot;:{},&quot;corners&quot;:null,&quot;locked&quot;:false,&quot;disabled&quot;:false,&quot;strokeScaling&quot;:true,&quot;container&quot;:false}}" id="Path" fill="url(#color-2)" fill-rule="nonzero"/><path d="M803.26716,366.26795c4.11294,0.04353 8.31641,0.14 12.42239,-0.01673c-6.03533,5.77343 -15.96418,17.63408 -21.68955,22.29379c2.41692,2.12611 21.54327,21.99079 21.71045,23.50049l-0.81493,0.13826l-11.36369,0.03379c-3.15174,-4.29821 -11.58657,-12.6498 -15.54627,-16.94661c-3.92487,3.99836 -12.37712,12.69473 -15.70994,16.93755c-3.88308,-0.06791 -8.97114,-0.29323 -12.74974,0.00974c7.03134,-6.86069 15.8214,-16.19787 22.4,-23.50049c-2.47961,-2.15746 -5.82984,-5.93503 -8.17016,-8.39826l-13.43582,-14.00558l12.57562,-0.0303c3.19353,3.12458 12.62089,13.04369 15.17016,16.32288c2.16617,-2.88288 12.50945,-13.73951 15.2015,-16.33856z" data-paper-data="{&quot;vgx&quot;:{&quot;signed&quot;:true,&quot;selected&quot;:false,&quot;unsigned&quot;:false,&quot;contained&quot;:false,&quot;visible&quot;:true,&quot;id&quot;:&quot;onan6flug_1773159595424387&quot;,&quot;changeset&quot;:&quot;zngj0nwkk_1773159595424388&quot;,&quot;staticid&quot;:&quot;wougp77t3_1773159595424389&quot;,&quot;name&quot;:&quot;Path&quot;,&quot;opacity&quot;:1,&quot;altname&quot;:&quot;&quot;,&quot;was&quot;:&quot;&quot;,&quot;owner&quot;:null,&quot;layer&quot;:false,&quot;class&quot;:&quot;item&quot;,&quot;type&quot;:&quot;default&quot;,&quot;ui&quot;:false,&quot;actor&quot;:true,&quot;props&quot;:{},&quot;corners&quot;:null,&quot;locked&quot;:false,&quot;disabled&quot;:false,&quot;strokeScaling&quot;:true,&quot;container&quot;:false}}" id="Path" fill="url(#color-3)" fill-rule="nonzero"/><path d="M590.04055,374.39876c11.52144,-1.7688 22.72493,2.0213 22.51527,15.31016c-0.12189,7.73239 -0.02751,15.66503 -0.0815,23.42179c-2.05542,0.0498 -4.54026,-0.09994 -6.62736,-0.17099l-0.1414,-4.64716c-8.4202,5.93641 -21.15706,8.53513 -29.25199,0.69235c-5.26254,-6.88821 -2.94454,-13.46891 4.82826,-16.58826c7.64533,-3.06781 15.8517,-2.68611 23.93164,-2.85503c-0.22323,-11.1986 -9.70179,-9.95288 -18.10911,-9.09513c-2.80696,0.28627 -5.38304,1.2203 -7.9288,2.38487c-0.67318,-1.92692 -1.07891,-3.6588 -1.56264,-5.63099c4.05408,-1.29483 8.21193,-2.23895 12.42761,-2.8216zM593.15154,395.30994c4.33408,-0.35592 7.68537,-0.10412 12.00517,0.26817l-0.02821,6.36722c-3.61458,3.96631 -6.54692,5.33706 -11.85402,5.99144c-3.1486,0.33363 -6.82099,0.27755 -9.58059,-1.5184c-2.59661,-1.68974 -3.45787,-4.79099 -1.3502,-7.31308c2.62866,-3.14513 7.01775,-3.39239 10.80787,-3.79533z" id="Path" fill="#fefdfd" fill-rule="evenodd"/><path d="M544.39673,374.0317c6.67647,-0.6885 13.53891,0.65193 18.37065,5.68359c4.98359,5.18974 4.88363,10.40631 4.7283,17.1117c-3.65984,-0.25736 -8.56751,-0.05921 -12.38339,-0.08359c-7.16925,-0.04667 -14.44787,0.00383 -21.6112,0.27686c3.75807,11.72483 11.57647,12.7985 22.81477,10.56791c2.40055,-0.55722 4.17702,-1.44318 6.29651,-2.64432c0.64984,2.15154 1.28055,3.53761 2.18568,5.56761c-9.26961,4.3912 -21.93994,5.82219 -30.68578,-0.40085c-4.04467,-2.84876 -6.74193,-7.23402 -7.46006,-12.12915c-1.98473,-12.96706 4.80667,-22.08517 17.74448,-23.94974zM545.22174,379.58154c8.77542,-1.34393 14.26049,3.3384 15.54765,11.75791l-10.96631,0.0613c-5.47114,0.04318 -10.94229,-0.00732 -16.4117,-0.15183c1.73189,-6.92199 4.66458,-10.27921 11.83035,-11.66736z" id="Path" fill="#fefdfd" fill-rule="evenodd"/><path d="M606.23353,294.41523c1.12941,1.21089 2.86965,14.1898 4.99438,17.47075c3.41189,5.2688 11.50473,5.61602 17.5613,7.03448c-4.09134,1.05 -9.29607,1.28611 -13.15339,2.64503c-7.32736,2.5813 -6.55527,14.99254 -9.17801,20.75552c-0.89572,-1.24432 -1.86945,-13.36722 -4.28254,-17.19945c-3.08696,-4.90245 -12.28901,-5.67383 -18.46225,-7.24692c4.22193,-0.46179 10.68179,-1.90079 14.37787,-3.98339c6.21746,-3.50314 6.50477,-13.09732 8.14264,-19.47602z" data-paper-data="{&quot;vgx&quot;:{&quot;signed&quot;:true,&quot;selected&quot;:false,&quot;unsigned&quot;:false,&quot;contained&quot;:false,&quot;visible&quot;:true,&quot;id&quot;:&quot;huabc6cfr_1773159595424402&quot;,&quot;changeset&quot;:&quot;w6te7mqjy_1773159595424403&quot;,&quot;staticid&quot;:&quot;py80c6pkw_1773159595424404&quot;,&quot;name&quot;:&quot;Path&quot;,&quot;opacity&quot;:1,&quot;altname&quot;:&quot;&quot;,&quot;was&quot;:&quot;&quot;,&quot;owner&quot;:null,&quot;layer&quot;:false,&quot;class&quot;:&quot;item&quot;,&quot;type&quot;:&quot;default&quot;,&quot;ui&quot;:false,&quot;actor&quot;:true,&quot;props&quot;:{},&quot;corners&quot;:null,&quot;locked&quot;:false,&quot;disabled&quot;:false,&quot;strokeScaling&quot;:true,&quot;container&quot;:false}}" id="Path" fill="#fefdfd" fill-rule="nonzero"/><path d="M461.65079,375.32477l7.09542,0.04109c0.20235,12.60732 0.22915,25.21637 0.0801,37.82438c-1.84961,0.11284 -5.18278,-0.00487 -7.13931,-0.01775c-0.26467,-12.43876 -0.09369,-25.37935 -0.03621,-37.84771z" data-paper-data="{&quot;vgx&quot;:{&quot;signed&quot;:true,&quot;selected&quot;:false,&quot;unsigned&quot;:false,&quot;contained&quot;:false,&quot;visible&quot;:true,&quot;id&quot;:&quot;1p56tj5wp_1773159595424405&quot;,&quot;changeset&quot;:&quot;jaf171etm_1773159595424406&quot;,&quot;staticid&quot;:&quot;gvuzbeq02_1773159595424407&quot;,&quot;name&quot;:&quot;Path&quot;,&quot;opacity&quot;:1,&quot;altname&quot;:&quot;&quot;,&quot;was&quot;:&quot;&quot;,&quot;owner&quot;:null,&quot;layer&quot;:false,&quot;class&quot;:&quot;item&quot;,&quot;type&quot;:&quot;default&quot;,&quot;ui&quot;:false,&quot;actor&quot;:true,&quot;props&quot;:{},&quot;corners&quot;:null,&quot;locked&quot;:false,&quot;disabled&quot;:false,&quot;strokeScaling&quot;:true,&quot;container&quot;:false}}" id="Path" fill="#fefdfd" fill-rule="nonzero"/><path d="M464.56817,358.76994c2.44026,-0.38065 4.74886,1.22308 5.24408,3.64245c0.49558,2.41935 -0.99742,4.80109 -3.39065,5.40984c-1.65179,0.42035 -3.40109,-0.10203 -4.55174,-1.35925c-1.15099,-1.25755 -1.51702,-3.04588 -0.95284,-4.65412c0.56418,-1.60826 1.96732,-2.77598 3.65114,-3.03891z" data-paper-data="{&quot;vgx&quot;:{&quot;signed&quot;:true,&quot;selected&quot;:false,&quot;unsigned&quot;:false,&quot;contained&quot;:false,&quot;visible&quot;:true,&quot;id&quot;:&quot;ay5q9m4vf_1773159595424408&quot;,&quot;changeset&quot;:&quot;8o1ztkss3_1773159595424409&quot;,&quot;staticid&quot;:&quot;qtpmjobs2_1773159595424410&quot;,&quot;name&quot;:&quot;Path&quot;,&quot;opacity&quot;:1,&quot;altname&quot;:&quot;&quot;,&quot;was&quot;:&quot;&quot;,&quot;owner&quot;:null,&quot;layer&quot;:false,&quot;class&quot;:&quot;item&quot;,&quot;type&quot;:&quot;default&quot;,&quot;ui&quot;:false,&quot;actor&quot;:true,&quot;props&quot;:{},&quot;corners&quot;:null,&quot;locked&quot;:false,&quot;disabled&quot;:false,&quot;strokeScaling&quot;:true,&quot;container&quot;:false}}" id="Path" fill="#fefdfd" fill-rule="nonzero"/><path d="M591.1515,454.54631c1.77124,-1.50588 11.55836,-10.40598 12.87722,-11.02726c-1.26245,2.83134 -10.47039,10.78487 -13.20006,12.65572l0.52935,-1.02876z" data-paper-data="{&quot;vgx&quot;:{&quot;signed&quot;:true,&quot;selected&quot;:false,&quot;unsigned&quot;:false,&quot;contained&quot;:false,&quot;visible&quot;:true,&quot;id&quot;:&quot;nsi1xvvtn_1773159595424411&quot;,&quot;changeset&quot;:&quot;mvebfu3z4_1773159595424412&quot;,&quot;staticid&quot;:&quot;w6lk8ppqu_1773159595424413&quot;,&quot;name&quot;:&quot;Path&quot;,&quot;opacity&quot;:1,&quot;altname&quot;:&quot;&quot;,&quot;was&quot;:&quot;&quot;,&quot;owner&quot;:null,&quot;layer&quot;:false,&quot;class&quot;:&quot;item&quot;,&quot;type&quot;:&quot;default&quot;,&quot;ui&quot;:false,&quot;actor&quot;:true,&quot;props&quot;:{},&quot;corners&quot;:null,&quot;locked&quot;:false,&quot;disabled&quot;:false,&quot;strokeScaling&quot;:true,&quot;container&quot;:false}}" id="Path" fill="#9c9d9f" fill-rule="nonzero"/><path d="M566.59542,289.79138c3.05493,1.03225 9.03105,4.3898 11.67258,6.3101c-4.60363,-1.64343 -8.62254,-3.83363 -13.0315,-5.69438z" data-paper-data="{&quot;vgx&quot;:{&quot;signed&quot;:true,&quot;selected&quot;:false,&quot;unsigned&quot;:false,&quot;contained&quot;:false,&quot;visible&quot;:true,&quot;id&quot;:&quot;2gknfmj5z_1773159595424414&quot;,&quot;changeset&quot;:&quot;65j3tenrb_1773159595424415&quot;,&quot;staticid&quot;:&quot;axt1ogtbf_1773159595424416&quot;,&quot;name&quot;:&quot;Path&quot;,&quot;opacity&quot;:1,&quot;altname&quot;:&quot;&quot;,&quot;was&quot;:&quot;&quot;,&quot;owner&quot;:null,&quot;layer&quot;:false,&quot;class&quot;:&quot;item&quot;,&quot;type&quot;:&quot;default&quot;,&quot;ui&quot;:false,&quot;actor&quot;:true,&quot;props&quot;:{},&quot;corners&quot;:null,&quot;locked&quot;:false,&quot;disabled&quot;:false,&quot;strokeScaling&quot;:true,&quot;container&quot;:false}}" id="Path" fill="#9c9d9f" fill-rule="nonzero"/></g></g></g></g></g></svg>