<svg id="svg" version="1.1" viewBox="0 0 300 235.8208955223881" width="300" height="235.8208955223881" xmlns="http://www.w3.org/2000/svg"><svg xmlns="http://www.w3.org/2000/svg"><defs><clipPath id="clip-1"><rect x="0" y="0" transform="scale(0.18657,0.18657)" width="1608" height="1264" fill="none"/></clipPath><linearGradient id="wrxGrad" x1="0%" y1="0%" x2="100%" y2="100%"><stop offset="0%" stop-color="#e6ff00"/><stop offset="50%" stop-color="#d4ff00"/><stop offset="100%" stop-color="#ffe600"/></linearGradient></defs><g clip-path="url(#clip-1)" fill="none" fill-rule="nonzero" stroke="none" stroke-width="1" stroke-linecap="butt" stroke-linejoin="miter" stroke-miterlimit="10" stroke-dasharray="" stroke-dashoffset="0" font-family="none" font-weight="none" font-size="none" text-anchor="none" style="mix-blend-mode: normal"><path d="M0,0h300v235.8209h-300z" fill="#030303"/><path d="M163.03321,169.43265c-5.31903,4.1181 -10.00168,6.99366 -16.37519,9.41772c-14.54888,5.43825 -30.65205,4.94347 -44.83955,-1.3778c-13.08414,-5.89384 -23.30765,-16.72146 -28.4416,-30.12183c-4.94646,-12.98358 -4.4916,-27.40653 1.26306,-40.05243c6.07817,-13.43246 17.3209,-23.84272 31.1806,-28.87127c14.40373,-5.29534 30.32556,-4.62164 44.2306,1.87164l-0.72799,0.32985c-1.95765,-0.94049 -5.02388,-1.86287 -7.11716,-2.41175c-10.80877,-2.89086 -22.23787,-2.45933 -32.79776,1.23881c-22.43582,7.87071 -37.89515,29.0431 -36.16343,52.97985c0.32631,4.50877 1.02407,8.4125 2.55336,12.69328c4.81511,13.49571 14.80709,24.51772 27.76735,30.62966c13.46959,6.36772 29.8875,6.78507 43.83228,1.73134c5.75653,-2.08619 10.9472,-5.26231 15.8084,-8.92948l0.11063,0.32127z" fill="#fefdfd"/><path d="M225.07276,121.45093l11.63433,-0.01791c4.78731,-0.00821 11.70522,-0.675 13.58769,5.43116c0.77239,2.50354 0.16418,6.25187 -2.04478,7.89832c-1.51493,1.12854 -2.58022,1.46772 -4.38806,1.95429c2.07836,2.46269 5.75,7.01791 7.92351,9.16007l-2.38619,0.00616l-4.41978,0.00056c-1.85634,-2.69067 -4.93284,-6.21604 -7.08396,-8.7819c-2.38433,-0.04049 -4.85634,0.00896 -7.24813,0.02481c0.07463,2.81231 0,5.94049 -0.01119,8.77687l-5.60821,-0.01026c-0.1306,-7.87332 -0.07649,-16.56623 0.04478,-24.44216z" fill="url(#wrxGrad)"/><path d="M230.72575,126.02817c3.52239,0.2709 15.9347,-2.09739 14.20522,4.28284c-0.13993,0.5153 -0.49254,1.05765 -0.79851,1.49832c-1.91604,1.59291 -10.59701,0.99515 -13.48134,0.97407c-0.01679,-2.00914 -0.10448,-4.81493 0.07463,-6.75522z" fill="#030303"/><path d="M120.14291,115.72351c1.20392,-0.04086 2.53731,0.0153 3.75112,0.04067l-0.01754,30.68507l-3.58601,-0.03246l-0.03153,-2.29757c-4.6653,3.1319 -9.16679,3.80989 -14.21269,1.0709c-4.87276,-3.37966 -6.16362,-9.60989 -3.1209,-14.76175c2.59272,-4.38974 9.51772,-6.10485 14.01493,-3.94851c1.17239,0.56213 2.09254,1.11082 3.21138,1.82724c-0.09216,-4.07146 -0.05224,-8.51604 -0.00877,-12.58358z" fill="#fefdfd"/><path d="M111.36996,128.7584c4.25709,-0.11959 6.47948,0.39869 8.74646,4.21549c0.14925,5.38694 0.76082,9.48004 -5.89216,10.6306c-2.0125,0.17332 -3.67463,0.21623 -5.48526,-0.87631c-3.56996,-2.13769 -4.43545,-7.40373 -2.24776,-10.80672c1.16325,-1.80933 2.82481,-2.71884 4.87873,-3.16306z" fill="#030303"/><path d="M216.42351,121.48265c1.84888,0.02071 3.71455,0.05821 5.5597,0.00056c-1.95149,5.37817 -4.41418,10.85597 -6.44963,16.21418c-0.90485,2.38228 -2.47201,5.77201 -2.97388,8.19366l-5.35821,0.0403c-0.29664,-1.36474 -1.72575,-4.69534 -2.30597,-6.14198l-4.22761,-10.64104c-0.1959,-0.51567 -0.22201,-0.8931 -0.61194,-1.11063c-1.19216,2.7653 -2.36194,6.17015 -3.4944,9.0334c-0.91418,2.30821 -2.70896,6.62183 -3.24813,8.87631l-5.22015,-0.02593c-0.47575,-1.55765 -2.19403,-5.34571 -2.88563,-6.98601l-7.45578,-17.30261c1.92201,-0.01772 3.84422,-0.01437 5.76623,0.00989c1.51007,5.60709 5.25989,12.51418 7.03601,18.22705c0.54291,-2.1666 2.02052,-5.29907 2.85634,-7.47108c1.37687,-3.57556 2.87127,-7.27463 4.07276,-10.90765c1.25,0.14552 4.04478,0.1069 5.35634,0.12127c1.00373,3.82668 3.4291,8.77071 4.85634,12.54646c0.72761,1.92071 1.61007,3.35485 2.11754,5.4653c0.6194,-2.13638 1.84142,-5.11381 2.64925,-7.25914c1.35634,-3.61418 2.67724,-7.24179 3.96082,-10.88228z" fill="url(#wrxGrad)"/><path d="M276.83955,121.26828c2.20336,0.02332 4.45522,0.075 6.65485,-0.00896c-3.23321,3.09291 -8.55224,9.44683 -11.6194,11.9431c1.29478,1.13899 11.54104,11.78078 11.6306,12.58955l-0.43657,0.07407l-6.08769,0.0181c-1.68843,-2.30261 -6.20709,-6.77668 -8.32836,-9.07854c-2.10261,2.14198 -6.6306,6.80075 -8.41604,9.07369c-2.08022,-0.03638 -4.80597,-0.15709 -6.83022,0.00522c3.76679,-3.67537 8.47575,-8.67743 12,-12.58955c-1.32836,-1.15578 -3.12313,-3.17948 -4.37687,-4.49907l-7.19776,-7.50299l6.73694,-0.01623c1.71082,1.67388 6.76119,6.98769 8.12687,8.7444c1.16045,-1.5444 6.70149,-7.36045 8.14366,-8.7528z" fill="url(#wrxGrad)"/><path d="M162.61101,125.62407c6.1722,-0.94757 12.17407,1.08284 12.06175,8.20187c-0.0653,4.14235 -0.01474,8.39198 -0.04366,12.54739c-1.10112,0.02668 -2.43228,-0.05354 -3.55037,-0.0916l-0.07575,-2.48955c-4.51082,3.18022 -11.33414,4.57239 -15.67071,0.3709c-2.81922,-3.69011 -1.57743,-7.21549 2.58657,-8.88657c4.09571,-1.64347 8.49198,-1.43899 12.82052,-1.52948c-0.11959,-5.99925 -5.19739,-5.3319 -9.70131,-4.87239c-1.50373,0.15336 -2.88377,0.65373 -4.24757,1.27761c-0.36063,-1.03228 -0.57799,-1.96007 -0.83713,-3.0166c2.17183,-0.69366 4.39925,-1.19944 6.65765,-1.51157z" fill="#fefdfd"/><path d="M164.27761,136.82649c2.32183,-0.19067 4.11716,-0.05578 6.43134,0.14366l-0.01511,3.41101c-1.93638,2.12481 -3.50728,2.85914 -6.35037,3.2097c-1.68675,0.17873 -3.6541,0.14869 -5.13246,-0.81343c-1.39104,-0.90522 -1.85243,-2.5666 -0.72332,-3.91772c1.40821,-1.68489 3.75951,-1.81735 5.78993,-2.03321z" fill="#030303"/><path d="M138.15896,125.42743c3.57668,-0.36884 7.25299,0.34925 9.84142,3.04478c2.66978,2.78022 2.61623,5.57481 2.53302,9.16698c-1.96063,-0.13787 -4.58974,-0.03172 -6.63396,-0.04478c-3.84067,-0.025 -7.73993,0.00205 -11.57743,0.14832c2.01325,6.28116 6.20168,6.85634 12.2222,5.66138c1.28601,-0.29851 2.23769,-0.77313 3.37313,-1.4166c0.34813,1.15261 0.68601,1.89515 1.1709,2.98265c-4.96586,2.35243 -11.75354,3.11903 -16.43881,-0.21474c-2.16679,-1.52612 -3.61175,-3.87537 -3.99646,-6.49776c-1.06325,-6.94664 2.575,-11.83134 9.50597,-12.83022z" fill="#fefdfd"/><path d="M138.60093,128.40056c4.70112,-0.71996 7.63955,1.78843 8.3291,6.29888l-5.87481,0.03284c-2.93097,0.02313 -5.86194,-0.00392 -8.79198,-0.08134c0.9278,-3.70821 2.49888,-5.50672 6.33769,-6.25037z" fill="#030303"/><path d="M171.28582,82.77575c0.60504,0.64869 1.53731,7.60168 2.67556,9.35933c1.8278,2.82257 6.16325,3.00858 9.40784,3.76847c-2.19179,0.5625 -4.98004,0.68899 -7.04646,1.41698c-3.92537,1.38284 -3.51175,8.03172 -4.91679,11.11903c-0.47985,-0.6666 -1.00149,-7.16101 -2.29422,-9.21399c-1.65373,-2.62631 -6.5834,-3.03955 -9.89049,-3.88228c2.26175,-0.24739 5.72239,-1.01828 7.70243,-2.13396c3.33078,-1.87668 3.4847,-7.01642 4.36213,-10.43358z" fill="#fefdfd"/><path d="M93.83078,126.12015l3.80112,0.02201c0.1084,6.75392 0.12276,13.50877 0.04291,20.26306c-0.99086,0.06045 -2.77649,-0.00261 -3.82463,-0.00951c-0.14179,-6.66362 -0.05019,-13.59608 -0.0194,-20.27556z" fill="#fefdfd"/><path d="M95.39366,117.25149c1.30728,-0.20392 2.54403,0.65522 2.80933,1.95131c0.26549,1.29608 -0.53433,2.57201 -1.81642,2.89813c-0.88489,0.22519 -1.82201,-0.05466 -2.43843,-0.72817c-0.6166,-0.67369 -0.81269,-1.63172 -0.51045,-2.49328c0.30224,-0.86157 1.05392,-1.48713 1.95597,-1.62799z" fill="#fefdfd"/><path d="M163.20616,168.56026c0.94888,-0.80672 6.19198,-5.57463 6.89851,-5.90746c-0.67631,1.51679 -5.60914,5.77761 -7.07146,6.77985l0.28358,-0.55112z" fill="#9c9d9f"/><path d="M150.05112,80.29869c1.63657,0.55299 4.83806,2.35168 6.25317,3.38041c-2.46623,-0.88041 -4.61922,-2.05373 -6.98116,-3.05056z" fill="#9c9d9f"/></g></svg></svg>